# xmcd CD database file
#
# Track frame offsets:
#	150
#	28347
#	53664
#	77196
#	104127
#	129770
#	150998
#	168555
#	196240
#	224852
#
# Disc length: 3211 seconds
#
# Revision: 1
# Processed by: cddbd v1.5.2PL0 Copyright (c) Steve Scherf et al.
# Submitted via: CDex 1.51
#
DISCID=8b0c890a
DTITLE=Maureen Choi - Maureen Choi Quartet
DYEAR=2011
DGENRE=Jazz
TTITLE0=Caravan
TTITLE1=No More Blues
TTITLE2=At Last 
TTITLE3=Sunny
TTITLE4=In a Sentimental Mood
TTITLE5=Alegria
TTITLE6=Feelin' Good
TTITLE7='Round Midnight
TTITLE8=On Green Dolphin Street
TTITLE9=Donna Lee
EXTD=YEAR: 2011
EXTT0=
EXTT1=
EXTT2=
EXTT3=
EXTT4=
EXTT5=
EXTT6=
EXTT7=
EXTT8=
EXTT9=
PLAYORDER=
